<?xml version="1.0" encoding="UTF-8"?>
<!DOCTYPE svg PUBLIC "-//W3C//DTD SVG 1.1//EN" "http://www.w3.org/Graphics/SVG/1.1/DTD/svg11.dtd">
<svg xmlns="http://www.w3.org/2000/svg" version="1.1" width="512px" height="512px" style="shape-rendering:geometricPrecision; text-rendering:geometricPrecision; image-rendering:optimizeQuality; fill-rule:evenodd; clip-rule:evenodd" xmlns:xlink="http://www.w3.org/1999/xlink">
<g><path style="opacity:0.996" fill="#f44545" d="M 232.5,-0.5 C 247.833,-0.5 263.167,-0.5 278.5,-0.5C 368.144,10.3879 435.644,54.7213 481,132.5C 497.695,163.971 507.861,197.304 511.5,232.5C 511.5,247.833 511.5,263.167 511.5,278.5C 501.95,361.306 462.617,425.639 393.5,471.5C 393.5,441.833 393.5,412.167 393.5,382.5C 393.5,373.5 393.5,364.5 393.5,355.5C 424.277,321.586 441.777,281.586 446,235.5C 449.206,152.068 415.706,88.2345 345.5,44C 323.46,31.1531 299.793,22.9864 274.5,19.5C 255.762,11.3602 236.428,5.69355 216.5,2.5C 221.811,1.35471 227.144,0.354713 232.5,-0.5 Z"/></g>
<g><path style="opacity:0.999" fill="#ffddce" d="M 216.5,2.5 C 236.428,5.69355 255.762,11.3602 274.5,19.5C 295.542,29.3791 314.876,41.8791 332.5,57C 343.764,66.3839 351.931,77.8839 357,91.5C 357.169,124.66 347.502,154.66 328,181.5C 322.672,188.676 315.839,193.676 307.5,196.5C 302.576,186.245 295.243,178.245 285.5,172.5C 288.88,169.721 292.38,167.054 296,164.5C 294.556,146.803 295.723,129.303 299.5,112C 278.422,105.628 258.422,96.7946 239.5,85.5C 237.155,89.5275 234.822,93.5275 232.5,97.5C 228.31,103.71 225.977,110.544 225.5,118C 228.068,129.777 230.568,141.61 233,153.5C 234.044,160.483 234.877,167.483 235.5,174.5C 236.4,179.772 236.733,185.105 236.5,190.5C 236.666,198.507 236.5,206.507 236,214.5C 235.141,221.26 232.641,227.26 228.5,232.5C 224.614,235.276 220.281,236.609 215.5,236.5C 211.835,236.498 208.835,235.165 206.5,232.5C 209.524,229.119 211.357,225.119 212,220.5C 213.398,211.203 213.732,201.87 213,192.5C 200.281,162.726 187.281,133.06 174,103.5C 168.793,96.6253 162.626,90.7919 155.5,86C 135.389,75.6106 115.056,65.7773 94.5,56.5C 129.896,27.1464 170.563,9.14636 216.5,2.5 Z"/></g>
<g><path style="opacity:1" fill="#fa5858" d="M 274.5,19.5 C 299.793,22.9864 323.46,31.1531 345.5,44C 415.706,88.2345 449.206,152.068 446,235.5C 441.777,281.586 424.277,321.586 393.5,355.5C 393.667,344.828 393.5,334.161 393,323.5C 389.102,308.601 379.936,298.435 365.5,293C 356.234,291.614 346.9,291.114 337.5,291.5C 341.419,288.327 341.419,285.16 337.5,282C 336.207,281.51 334.873,281.343 333.5,281.5C 333.5,278.167 333.5,274.833 333.5,271.5C 340.165,271.166 341.832,268.166 338.5,262.5C 336.929,261.691 335.262,261.357 333.5,261.5C 333.855,256.023 331.522,252.19 326.5,250C 317.84,249.5 309.173,249.334 300.5,249.5C 304.219,244.729 306.885,239.396 308.5,233.5C 312.69,221.084 312.356,208.751 307.5,196.5C 315.839,193.676 322.672,188.676 328,181.5C 347.502,154.66 357.169,124.66 357,91.5C 351.931,77.8839 343.764,66.3839 332.5,57C 314.876,41.8791 295.542,29.3791 274.5,19.5 Z"/></g>
<g><path style="opacity:1" fill="#febda9" d="M 94.5,56.5 C 115.056,65.7773 135.389,75.6106 155.5,86C 162.626,90.7919 168.793,96.6253 174,103.5C 187.281,133.06 200.281,162.726 213,192.5C 213.732,201.87 213.398,211.203 212,220.5C 211.357,225.119 209.524,229.119 206.5,232.5C 204.827,231.657 203.66,230.324 203,228.5C 202.463,216.481 200.13,204.815 196,193.5C 184.316,167.469 172.65,141.469 161,115.5C 156.801,110.966 152.301,106.799 147.5,103C 130.93,94.5478 114.263,86.3812 97.5,78.5C 91.5,75.5 85.5,72.5 79.5,69.5C 84.1793,64.8223 89.1793,60.489 94.5,56.5 Z"/></g>
<g><path style="opacity:0.995" fill="#f44545" d="M 79.5,69.5 C 85.5,72.5 91.5,75.5 97.5,78.5C 45.3838,136.644 29.5505,203.644 50,279.5C 62.5591,319.19 85.0591,351.857 117.5,377.5C 117.5,408.833 117.5,440.167 117.5,471.5C 48.3829,425.637 9.04955,361.304 -0.5,278.5C -0.5,263.167 -0.5,247.833 -0.5,232.5C 6.16501,168.172 32.8317,113.839 79.5,69.5 Z"/></g>
<g><path style="opacity:1" fill="#fa5858" d="M 97.5,78.5 C 114.263,86.3812 130.93,94.5478 147.5,103C 152.301,106.799 156.801,110.966 161,115.5C 172.65,141.469 184.316,167.469 196,193.5C 200.13,204.815 202.463,216.481 203,228.5C 203.66,230.324 204.827,231.657 206.5,232.5C 208.835,235.165 211.835,236.498 215.5,236.5C 217.403,241.068 219.736,245.402 222.5,249.5C 209.496,249.333 196.496,249.5 183.5,250C 179.093,252.575 177.093,256.408 177.5,261.5C 170.835,261.834 169.168,264.834 172.5,270.5C 174.071,271.309 175.738,271.643 177.5,271.5C 177.5,274.833 177.5,278.167 177.5,281.5C 172.335,281.162 170.169,283.495 171,288.5C 171.698,289.691 172.531,290.691 173.5,291.5C 151.552,287.407 134.385,294.407 122,312.5C 120.382,316.068 119.049,319.735 118,323.5C 117.5,341.497 117.333,359.497 117.5,377.5C 85.0591,351.857 62.5591,319.19 50,279.5C 29.5505,203.644 45.3838,136.644 97.5,78.5 Z"/></g>
<g><path style="opacity:1" fill="#ffbda9" d="M 285.5,172.5 C 277.84,169.301 269.84,167.634 261.5,167.5C 265.432,161.067 270.266,155.401 276,150.5C 274.927,140.831 273.427,131.164 271.5,121.5C 271.167,120.833 270.833,120.167 270.5,119.5C 255.653,115.749 242.987,108.416 232.5,97.5C 234.822,93.5275 237.155,89.5275 239.5,85.5C 258.422,96.7946 278.422,105.628 299.5,112C 295.723,129.303 294.556,146.803 296,164.5C 292.38,167.054 288.88,169.721 285.5,172.5 Z"/></g>
<g><path style="opacity:1" fill="#fb5958" d="M 232.5,97.5 C 242.987,108.416 255.653,115.749 270.5,119.5C 270.833,120.167 271.167,120.833 271.5,121.5C 273.427,131.164 274.927,140.831 276,150.5C 270.266,155.401 265.432,161.067 261.5,167.5C 252.159,167.392 243.493,169.726 235.5,174.5C 234.877,167.483 234.044,160.483 233,153.5C 230.568,141.61 228.068,129.777 225.5,118C 225.977,110.544 228.31,103.71 232.5,97.5 Z"/></g>
<g><path style="opacity:1" fill="#fff9f8" d="M 405.5,153.5 C 408.652,152.959 411.152,153.959 413,156.5C 413.498,159.817 413.665,163.15 413.5,166.5C 416.85,166.335 420.183,166.502 423.5,167C 427.482,170.048 427.482,173.048 423.5,176C 420.183,176.498 416.85,176.665 413.5,176.5C 413.665,179.85 413.498,183.183 413,186.5C 410.294,189.978 407.294,190.311 404,187.5C 403.501,183.848 403.335,180.182 403.5,176.5C 399.818,176.665 396.152,176.499 392.5,176C 388.5,173 388.5,170 392.5,167C 395.817,166.502 399.15,166.335 402.5,166.5C 401.738,161.607 402.738,157.274 405.5,153.5 Z"/></g>
<g><path style="opacity:1" fill="#ffc04e" d="M 261.5,167.5 C 269.84,167.634 277.84,169.301 285.5,172.5C 295.243,178.245 302.576,186.245 307.5,196.5C 312.356,208.751 312.69,221.084 308.5,233.5C 302.289,236.077 297.956,234.41 295.5,228.5C 300.693,209.385 294.693,194.885 277.5,185C 269.76,181.917 261.76,180.917 253.5,182C 251.548,182.366 249.882,183.199 248.5,184.5C 244.19,185.988 240.19,187.988 236.5,190.5C 236.733,185.105 236.4,179.772 235.5,174.5C 243.493,169.726 252.159,167.392 261.5,167.5 Z"/></g>
<g><path style="opacity:1" fill="#ffe79b" d="M 295.5,228.5 C 295.672,229.492 295.338,230.158 294.5,230.5C 286.13,237.11 276.797,239.443 266.5,237.5C 266.667,224.163 266.5,210.829 266,197.5C 263,193.5 260,193.5 257,197.5C 256.5,209.495 256.333,221.495 256.5,233.5C 242.737,224.392 237.903,211.725 242,195.5C 243.674,191.476 245.841,187.809 248.5,184.5C 249.882,183.199 251.548,182.366 253.5,182C 261.76,180.917 269.76,181.917 277.5,185C 294.693,194.885 300.693,209.385 295.5,228.5 Z"/></g>
<g><path style="opacity:1" fill="#ffcd71" d="M 248.5,184.5 C 245.841,187.809 243.674,191.476 242,195.5C 237.903,211.725 242.737,224.392 256.5,233.5C 256.162,238.665 258.495,240.831 263.5,240C 264.691,239.302 265.691,238.469 266.5,237.5C 276.797,239.443 286.13,237.11 294.5,230.5C 291.326,238.672 285.993,245.005 278.5,249.5C 267.167,249.5 255.833,249.5 244.5,249.5C 237.786,245.12 232.452,239.453 228.5,232.5C 232.641,227.26 235.141,221.26 236,214.5C 236.5,206.507 236.666,198.507 236.5,190.5C 240.19,187.988 244.19,185.988 248.5,184.5 Z"/></g>
<g><path style="opacity:1" fill="#ffa90d" d="M 266.5,237.5 C 265.691,238.469 264.691,239.302 263.5,240C 258.495,240.831 256.162,238.665 256.5,233.5C 256.333,221.495 256.5,209.495 257,197.5C 260,193.5 263,193.5 266,197.5C 266.5,210.829 266.667,224.163 266.5,237.5 Z"/></g>
<g><path style="opacity:1" fill="#febd4f" d="M 359.5,212.5 C 361.903,212.393 363.736,213.393 365,215.5C 365.499,219.152 365.665,222.818 365.5,226.5C 369.182,226.335 372.848,226.501 376.5,227C 379.418,230.472 379.085,233.472 375.5,236C 372.183,236.498 368.85,236.665 365.5,236.5C 365.665,240.182 365.499,243.848 365,247.5C 361.626,250.405 358.626,250.072 356,246.5C 355.502,243.183 355.335,239.85 355.5,236.5C 352.15,236.665 348.817,236.498 345.5,236C 342.022,233.294 341.689,230.294 344.5,227C 348.152,226.501 351.818,226.335 355.5,226.5C 355.335,222.818 355.501,219.152 356,215.5C 357.145,214.364 358.312,213.364 359.5,212.5 Z"/></g>
<g><path style="opacity:1" fill="#ffa910" d="M 295.5,228.5 C 297.956,234.41 302.289,236.077 308.5,233.5C 306.885,239.396 304.219,244.729 300.5,249.5C 293.167,249.5 285.833,249.5 278.5,249.5C 285.993,245.005 291.326,238.672 294.5,230.5C 295.338,230.158 295.672,229.492 295.5,228.5 Z"/></g>
<g><path style="opacity:1" fill="#ffa913" d="M 228.5,232.5 C 232.452,239.453 237.786,245.12 244.5,249.5C 237.167,249.5 229.833,249.5 222.5,249.5C 219.736,245.402 217.403,241.068 215.5,236.5C 220.281,236.609 224.614,235.276 228.5,232.5 Z"/></g>
<g><path style="opacity:1" fill="#86bdfa" d="M 222.5,249.5 C 229.833,249.5 237.167,249.5 244.5,249.5C 255.833,249.5 267.167,249.5 278.5,249.5C 285.833,249.5 293.167,249.5 300.5,249.5C 309.173,249.334 317.84,249.5 326.5,250C 331.522,252.19 333.855,256.023 333.5,261.5C 281.5,261.5 229.5,261.5 177.5,261.5C 177.093,256.408 179.093,252.575 183.5,250C 196.496,249.5 209.496,249.333 222.5,249.5 Z"/></g>
<g><path style="opacity:1" fill="#c8e1fc" d="M 177.5,261.5 C 229.5,261.5 281.5,261.5 333.5,261.5C 335.262,261.357 336.929,261.691 338.5,262.5C 341.832,268.166 340.165,271.166 333.5,271.5C 281.5,271.5 229.5,271.5 177.5,271.5C 175.738,271.643 174.071,271.309 172.5,270.5C 169.168,264.834 170.835,261.834 177.5,261.5 Z"/></g>
<g><path style="opacity:1" fill="#86befb" d="M 177.5,271.5 C 229.5,271.5 281.5,271.5 333.5,271.5C 333.5,274.833 333.5,278.167 333.5,281.5C 281.5,281.5 229.5,281.5 177.5,281.5C 177.5,278.167 177.5,274.833 177.5,271.5 Z"/></g>
<g><path style="opacity:1" fill="#c8e1fc" d="M 177.5,281.5 C 229.5,281.5 281.5,281.5 333.5,281.5C 334.873,281.343 336.207,281.51 337.5,282C 341.419,285.16 341.419,288.327 337.5,291.5C 295.5,291.5 253.5,291.5 211.5,291.5C 198.833,291.5 186.167,291.5 173.5,291.5C 172.531,290.691 171.698,289.691 171,288.5C 170.169,283.495 172.335,281.162 177.5,281.5 Z"/></g>
<g><path style="opacity:0.999" fill="#86bdfa" d="M 173.5,291.5 C 186.167,291.5 198.833,291.5 211.5,291.5C 194.305,296.532 183.805,307.865 180,325.5C 179.333,344.5 179.333,363.5 180,382.5C 182.305,405.766 191.138,426.099 206.5,443.5C 196.704,447.89 186.704,452.057 176.5,456C 174.963,457.11 174.297,458.61 174.5,460.5C 168.824,460.334 163.157,460.501 157.5,461C 156.069,461.465 154.903,462.299 154,463.5C 152.557,472.392 152.057,481.392 152.5,490.5C 140.031,485.436 128.364,479.103 117.5,471.5C 117.5,440.167 117.5,408.833 117.5,377.5C 117.333,359.497 117.5,341.497 118,323.5C 119.049,319.735 120.382,316.068 122,312.5C 134.385,294.407 151.552,287.407 173.5,291.5 Z"/></g>
<g><path style="opacity:1" fill="#a7cffb" d="M 211.5,291.5 C 253.5,291.5 295.5,291.5 337.5,291.5C 346.9,291.114 356.234,291.614 365.5,293C 379.936,298.435 389.102,308.601 393,323.5C 393.5,334.161 393.667,344.828 393.5,355.5C 393.5,364.5 393.5,373.5 393.5,382.5C 389.337,414.836 374.337,440.836 348.5,460.5C 325.5,460.5 302.5,460.5 279.5,460.5C 280.057,456.112 278.39,452.945 274.5,451C 260.167,450.667 245.833,450.333 231.5,450C 236.846,448.219 242.013,446.053 247,443.5C 251.303,434.619 248.47,430.453 238.5,431C 233.358,433.094 228.358,435.26 223.5,437.5C 217.833,439.5 212.167,441.5 206.5,443.5C 191.138,426.099 182.305,405.766 180,382.5C 179.333,363.5 179.333,344.5 180,325.5C 183.805,307.865 194.305,296.532 211.5,291.5 Z"/></g>
<g><path style="opacity:1" fill="#c7e1fc" d="M 352.5,314.5 C 358.739,313.536 363.239,315.869 366,321.5C 366.667,335.833 366.667,350.167 366,364.5C 362.423,371.553 356.923,373.386 349.5,370C 346.732,368.238 345.232,365.738 345,362.5C 344.333,349.167 344.333,335.833 345,322.5C 346.353,318.65 348.853,315.983 352.5,314.5 Z"/></g>
<g><path style="opacity:1" fill="#f0960a" d="M 316.5,351.5 C 326.493,350.655 329.493,354.822 325.5,364C 304.913,372.529 284.247,380.862 263.5,389C 257.24,390.879 253.573,388.712 252.5,382.5C 252.556,379.889 253.556,377.722 255.5,376C 275.973,367.904 296.306,359.738 316.5,351.5 Z"/></g>
<g><path style="opacity:0.995" fill="#86befa" d="M 393.5,382.5 C 393.5,412.167 393.5,441.833 393.5,471.5C 383.933,478.363 373.599,484.03 362.5,488.5C 362.666,480.826 362.5,473.159 362,465.5C 361.167,463.333 359.667,461.833 357.5,461C 354.518,460.502 351.518,460.335 348.5,460.5C 374.337,440.836 389.337,414.836 393.5,382.5 Z"/></g>
<g><path style="opacity:1" fill="#fda913" d="M 287.5,396.5 C 291.964,396.598 296.297,397.431 300.5,399C 318.439,404.869 336.439,410.535 354.5,416C 359.143,418.072 360.643,421.572 359,426.5C 356.487,430.212 352.987,431.378 348.5,430C 328.439,423.868 308.439,417.535 288.5,411C 283.776,408.565 282.276,404.731 284,399.5C 285.145,398.364 286.312,397.364 287.5,396.5 Z"/></g>
<g><path style="opacity:1" fill="#fea90f" d="M 348.5,460.5 C 351.518,460.335 354.518,460.502 357.5,461C 359.667,461.833 361.167,463.333 362,465.5C 362.5,473.159 362.666,480.826 362.5,488.5C 335.77,500.849 307.77,508.515 278.5,511.5C 263.167,511.5 247.833,511.5 232.5,511.5C 232.5,510.833 232.167,510.5 231.5,510.5C 226.737,507.588 222.071,504.421 217.5,501C 213.919,497.252 210.919,493.085 208.5,488.5C 220.486,487.667 232.486,487.167 244.5,487C 251.565,483.274 252.232,478.608 246.5,473C 232.504,472.5 218.504,472.333 204.5,472.5C 204.857,457.443 211.191,445.776 223.5,437.5C 228.358,435.26 233.358,433.094 238.5,431C 248.47,430.453 251.303,434.619 247,443.5C 242.013,446.053 236.846,448.219 231.5,450C 245.833,450.333 260.167,450.667 274.5,451C 278.39,452.945 280.057,456.112 279.5,460.5C 302.5,460.5 325.5,460.5 348.5,460.5 Z"/></g>
<g><path style="opacity:1" fill="#f19505" d="M 223.5,437.5 C 211.191,445.776 204.857,457.443 204.5,472.5C 218.504,472.333 232.504,472.5 246.5,473C 252.232,478.608 251.565,483.274 244.5,487C 232.486,487.167 220.486,487.667 208.5,488.5C 210.919,493.085 213.919,497.252 217.5,501C 222.071,504.421 226.737,507.588 231.5,510.5C 203.984,508.371 177.651,501.704 152.5,490.5C 152.057,481.392 152.557,472.392 154,463.5C 154.903,462.299 156.069,461.465 157.5,461C 163.157,460.501 168.824,460.334 174.5,460.5C 174.297,458.61 174.963,457.11 176.5,456C 186.704,452.057 196.704,447.89 206.5,443.5C 212.167,441.5 217.833,439.5 223.5,437.5 Z"/></g>
<g><path style="opacity:1" fill="#f29500" d="M 273.5,482.5 C 289.17,482.333 304.837,482.5 320.5,483C 328.073,487.187 328.406,491.854 321.5,497C 305.5,497.667 289.5,497.667 273.5,497C 269.788,494.487 268.622,490.987 270,486.5C 271.376,485.295 272.542,483.962 273.5,482.5 Z"/></g>
</svg>
