<?xml version="1.0" encoding="UTF-8"?>
<!DOCTYPE svg PUBLIC "-//W3C//DTD SVG 1.1//EN" "http://www.w3.org/Graphics/SVG/1.1/DTD/svg11.dtd">
<svg xmlns="http://www.w3.org/2000/svg" version="1.1" width="512px" height="512px" style="shape-rendering:geometricPrecision; text-rendering:geometricPrecision; image-rendering:optimizeQuality; fill-rule:evenodd; clip-rule:evenodd" xmlns:xlink="http://www.w3.org/1999/xlink">
<g><path style="opacity:0.979" fill="#cd6952" d="M 233.5,-0.5 C 248.167,-0.5 262.833,-0.5 277.5,-0.5C 294.186,1.03716 310.519,4.3705 326.5,9.5C 279.167,9.5 231.833,9.5 184.5,9.5C 189.244,7.55828 194.244,6.05828 199.5,5C 210.925,2.82293 222.258,0.989599 233.5,-0.5 Z"/></g>
<g><path style="opacity:0.999" fill="#fbf7f1" d="M 327.5,9.5 C 361.502,9.33335 395.502,9.50002 429.5,10C 450.333,14.8333 463.167,27.6667 468,48.5C 468.5,70.1641 468.667,91.8308 468.5,113.5C 468.5,208.167 468.5,302.833 468.5,397.5C 436.921,445.468 393.921,478.802 339.5,497.5C 329.5,497.5 319.5,497.5 309.5,497.5C 309.187,493.958 309.521,490.625 310.5,487.5C 320.414,488.418 327.581,484.418 332,475.5C 333.451,460.572 333.951,445.572 333.5,430.5C 333.5,420.167 333.5,409.833 333.5,399.5C 345.532,401.834 352.865,397.167 355.5,385.5C 354.59,379.42 351.256,375.254 345.5,373C 341.514,372.501 337.514,372.334 333.5,372.5C 333.5,369.5 333.5,366.5 333.5,363.5C 333.667,349.163 333.5,334.829 333,320.5C 331.371,315.55 328.538,311.55 324.5,308.5C 333.016,309.115 341.349,308.282 349.5,306C 358.442,296.318 357.109,288.318 345.5,282C 260.5,281.333 175.5,281.333 90.5,282C 79.3289,287.869 77.6622,295.702 85.5,305.5C 73.1622,305.333 60.8288,305.5 48.5,306C 46.8455,306.608 45.1789,307.108 43.5,307.5C 43.3333,255.499 43.5,203.499 44,151.5C 48.0259,140.14 55.8592,132.973 67.5,130C 86.5,129.667 105.5,129.333 124.5,129C 144.734,125.435 157.234,113.601 162,93.5C 162.333,73.8333 162.667,54.1667 163,34.5C 165.973,22.8592 173.14,15.0259 184.5,11C 232.335,10.8327 280.002,10.3327 327.5,9.5 Z"/></g>
<g><path style="opacity:1" fill="#eae4df" d="M 184.5,9.5 C 231.833,9.5 279.167,9.5 326.5,9.5C 326.833,9.5 327.167,9.5 327.5,9.5C 280.002,10.3327 232.335,10.8327 184.5,11C 173.14,15.0259 165.973,22.8592 163,34.5C 162.667,54.1667 162.333,73.8333 162,93.5C 157.234,113.601 144.734,125.435 124.5,129C 105.5,129.333 86.5,129.667 67.5,130C 55.8592,132.973 48.0259,140.14 44,151.5C 43.5,203.499 43.3333,255.499 43.5,307.5C 43.5,308.167 43.1667,308.5 42.5,308.5C 42.3333,253.832 42.5,199.166 43,144.5C 45.0659,132.703 50.0659,122.369 58,113.5C 88.7768,82.8905 119.277,52.2238 149.5,21.5C 159.764,13.5229 171.43,9.52291 184.5,9.5 Z"/></g>
<g><path style="opacity:0.994" fill="#ce6a52" d="M 149.5,21.5 C 119.277,52.2238 88.7768,82.8905 58,113.5C 50.0659,122.369 45.0659,132.703 43,144.5C 42.5,199.166 42.3333,253.832 42.5,308.5C 37.2017,312.093 34.2017,317.093 33.5,323.5C 32.5489,324.919 32.2155,326.585 32.5,328.5C 30.5853,328.216 28.9187,328.549 27.5,329.5C 21.5061,330.33 16.5061,332.997 12.5,337.5C 5.97757,318.211 1.64424,298.545 -0.5,278.5C -0.5,263.167 -0.5,247.833 -0.5,232.5C 11.9075,135.322 61.9075,64.9889 149.5,21.5 Z"/></g>
<g><path style="opacity:1" fill="#eae6e1" d="M 188.5,63.5 C 236.834,63.3333 285.168,63.5 333.5,64C 344.832,69.4906 347.332,77.6573 341,88.5C 338.374,91.2308 335.207,93.0642 331.5,94C 284.5,94.6667 237.5,94.6667 190.5,94C 179.391,89.4054 176.224,81.5721 181,70.5C 183.37,67.9614 185.87,65.6281 188.5,63.5 Z"/></g>
<g><path style="opacity:0.994" fill="#ce6951" d="M 468.5,113.5 C 486.661,139.509 499.161,168.175 506,199.5C 508.254,210.576 510.087,221.576 511.5,232.5C 511.5,247.833 511.5,263.167 511.5,278.5C 507.861,313.696 497.695,347.029 481,378.5C 477.307,385.241 473.14,391.574 468.5,397.5C 468.5,302.833 468.5,208.167 468.5,113.5 Z"/></g>
<g><path style="opacity:1" fill="#a286d6" d="M 413.5,140.5 C 421.28,140.116 425.447,143.782 426,151.5C 431.864,152.758 436.531,155.758 440,160.5C 441.278,170.221 437.111,174.055 427.5,172C 421.695,167.705 415.862,167.538 410,171.5C 407.531,175.824 408.364,179.324 412.5,182C 420.249,185.139 427.916,188.472 435.5,192C 450.305,207.208 449.972,222.208 434.5,237C 431.588,238.373 428.754,239.873 426,241.5C 425.024,252.65 419.69,255.65 410,250.5C 409.007,247.692 408.173,244.859 407.5,242C 399.708,241.192 393.542,237.692 389,231.5C 388.013,223.489 391.513,219.656 399.5,220C 406.975,224.706 414.975,225.706 423.5,223C 429.538,217.478 429.872,211.811 424.5,206C 414.079,202.873 404.579,198.04 396,191.5C 387.308,177.799 389.142,165.632 401.5,155C 403.65,153.589 405.984,152.755 408.5,152.5C 407.475,147.233 409.142,143.233 413.5,140.5 Z"/></g>
<g><path style="opacity:1" fill="#5a565e" d="M 89.5,162.5 C 149.501,162.333 209.501,162.5 269.5,163C 278.401,166.889 280.901,173.389 277,182.5C 274.9,185.467 272.066,187.3 268.5,188C 208.833,188.667 149.167,188.667 89.5,188C 80.8582,183.217 78.6915,176.384 83,167.5C 84.9651,165.45 87.1318,163.783 89.5,162.5 Z"/></g>
<g><path style="opacity:1" fill="#5a565e" d="M 88.5,197.5 C 174.501,197.333 260.501,197.5 346.5,198C 355.386,202.269 357.552,208.769 353,217.5C 351.062,220.106 348.562,221.939 345.5,223C 260.5,223.667 175.5,223.667 90.5,223C 81.0747,218.656 78.5747,211.823 83,202.5C 84.7297,200.598 86.563,198.931 88.5,197.5 Z"/></g>
<g><path style="opacity:1" fill="#5d5961" d="M 90.5,246.5 C 149.834,246.333 209.168,246.5 268.5,247C 278.835,251.231 281.335,258.398 276,268.5C 273.742,270.43 271.242,271.93 268.5,273C 209.167,273.667 149.833,273.667 90.5,273C 81.053,268.62 78.553,261.787 83,252.5C 85.1141,249.879 87.6141,247.879 90.5,246.5 Z"/></g>
<g><path style="opacity:1" fill="#5b575f" d="M 324.5,308.5 C 322.641,307.406 320.641,306.573 318.5,306C 240.834,305.5 163.167,305.333 85.5,305.5C 77.6622,295.702 79.3289,287.869 90.5,282C 175.5,281.333 260.5,281.333 345.5,282C 357.109,288.318 358.442,296.318 349.5,306C 341.349,308.282 333.016,309.115 324.5,308.5 Z"/></g>
<g><path style="opacity:1" fill="#a286d6" d="M 412.5,298.5 C 421.506,296.847 425.839,300.514 425.5,309.5C 431.41,310.205 436.243,312.872 440,317.5C 441.667,324.842 438.834,329.175 431.5,330.5C 427.884,329.03 424.217,327.53 420.5,326C 416.588,325.069 413.088,325.903 410,328.5C 407.399,333.502 408.566,337.335 413.5,340C 420.167,342.667 426.833,345.333 433.5,348C 447.739,358.804 450.239,371.971 441,387.5C 437.16,392.511 432.327,396.177 426.5,398.5C 426.216,408.965 421.216,412.465 411.5,409C 408.971,406.358 407.971,403.192 408.5,399.5C 401.356,398.511 395.189,395.511 390,390.5C 386.836,382.823 389.336,378.489 397.5,377.5C 401.766,378.261 405.766,379.761 409.5,382C 421.674,384.368 427.841,379.535 428,367.5C 427.535,366.069 426.701,364.903 425.5,364C 416.46,360.766 407.793,356.766 399.5,352C 387.561,339.364 387.561,326.698 399.5,314C 402.005,312.247 404.671,310.747 407.5,309.5C 407.638,305.044 409.305,301.377 412.5,298.5 Z"/></g>
<g><path style="opacity:1" fill="#41b276" d="M 85.5,305.5 C 163.167,305.333 240.834,305.5 318.5,306C 320.641,306.573 322.641,307.406 324.5,308.5C 328.538,311.55 331.371,315.55 333,320.5C 333.5,334.829 333.667,349.163 333.5,363.5C 325.862,363.472 318.529,361.972 311.5,359C 312.061,348.214 308.395,339.214 300.5,332C 294.058,329.735 287.391,328.901 280.5,329.5C 279.492,325.806 278.325,322.139 277,318.5C 275.985,314.56 275.485,310.56 275.5,306.5C 213.833,306.5 152.167,306.5 90.5,306.5C 90.6653,310.182 90.4986,313.848 90,317.5C 88.521,321.417 87.3543,325.417 86.5,329.5C 80.1667,329.5 73.8333,329.5 67.5,329.5C 56.1667,329.5 44.8333,329.5 33.5,329.5C 33.5,327.5 33.5,325.5 33.5,323.5C 34.2017,317.093 37.2017,312.093 42.5,308.5C 43.1667,308.5 43.5,308.167 43.5,307.5C 45.1789,307.108 46.8455,306.608 48.5,306C 60.8288,305.5 73.1622,305.333 85.5,305.5 Z"/></g>
<g><path style="opacity:1" fill="#a08c66" d="M 33.5,323.5 C 33.5,325.5 33.5,327.5 33.5,329.5C 31.5,329.5 29.5,329.5 27.5,329.5C 28.9187,328.549 30.5853,328.216 32.5,328.5C 32.2155,326.585 32.5489,324.919 33.5,323.5 Z"/></g>
<g><path style="opacity:1" fill="#4ac688" d="M 27.5,329.5 C 29.5,329.5 31.5,329.5 33.5,329.5C 44.8333,329.5 56.1667,329.5 67.5,329.5C 65.3409,360.155 49.3409,378.988 19.5,386C 16.1832,386.498 12.8499,386.665 9.5,386.5C 9.33342,372.163 9.50009,357.829 10,343.5C 10.5725,341.359 11.4058,339.359 12.5,337.5C 16.5061,332.997 21.5061,330.33 27.5,329.5 Z"/></g>
<g><path style="opacity:1" fill="#5ad79c" d="M 67.5,329.5 C 73.8333,329.5 80.1667,329.5 86.5,329.5C 141.833,329.5 197.167,329.5 252.5,329.5C 255.297,364.631 274.297,383.964 309.5,387.5C 309.5,409.5 309.5,431.5 309.5,453.5C 283.278,455.352 265.112,468.352 255,492.5C 252.904,498.64 252.07,504.973 252.5,511.5C 190.833,511.5 129.167,511.5 67.5,511.5C 66.0944,487.512 54.7611,470.012 33.5,459C 25.7876,455.905 17.7876,454.072 9.5,453.5C 9.5,431.167 9.5,408.833 9.5,386.5C 12.8499,386.665 16.1832,386.498 19.5,386C 49.3409,378.988 65.3409,360.155 67.5,329.5 Z"/></g>
<g><path style="opacity:1" fill="#4ac688" d="M 333.5,363.5 C 333.5,366.5 333.5,369.5 333.5,372.5C 333.5,381.5 333.5,390.5 333.5,399.5C 333.5,409.833 333.5,420.167 333.5,430.5C 325.817,429.921 318.484,431.254 311.5,434.5C 310.5,452.154 310.167,469.821 310.5,487.5C 309.521,490.625 309.187,493.958 309.5,497.5C 307.683,501.111 305.35,504.445 302.5,507.5C 300.5,508.833 298.5,510.167 296.5,511.5C 281.833,511.5 267.167,511.5 252.5,511.5C 252.07,504.973 252.904,498.64 255,492.5C 265.112,468.352 283.278,455.352 309.5,453.5C 309.5,431.5 309.5,409.5 309.5,387.5C 274.297,383.964 255.297,364.631 252.5,329.5C 197.167,329.5 141.833,329.5 86.5,329.5C 87.3543,325.417 88.521,321.417 90,317.5C 90.4986,313.848 90.6653,310.182 90.5,306.5C 152.167,306.5 213.833,306.5 275.5,306.5C 275.485,310.56 275.985,314.56 277,318.5C 278.325,322.139 279.492,325.806 280.5,329.5C 287.391,328.901 294.058,329.735 300.5,332C 308.395,339.214 312.061,348.214 311.5,359C 318.529,361.972 325.862,363.472 333.5,363.5 Z"/></g>
<g><path style="opacity:1" fill="#4ac688" d="M 150.5,356.5 C 189.115,355.3 213.282,373.3 223,410.5C 225.736,440.869 213.902,463.369 187.5,478C 149.321,491.831 120.488,480.998 101,445.5C 89.1846,408.658 100.018,380.825 133.5,362C 139.137,359.682 144.803,357.849 150.5,356.5 Z"/></g>
<g><path style="opacity:1" fill="#5ad79c" d="M 154.5,362.5 C 163.706,360.674 168.873,364.34 170,373.5C 174.97,375.151 179.303,377.817 183,381.5C 186.373,392.787 182.207,398.287 170.5,398C 165.49,393.332 159.99,392.499 154,395.5C 151.577,400.161 152.744,403.661 157.5,406C 165.731,407.618 173.397,410.618 180.5,415C 192.902,428.347 193.735,442.514 183,457.5C 179.218,461.28 174.884,464.28 170,466.5C 167.991,476.919 162.158,480.086 152.5,476C 150.451,473.404 148.785,470.571 147.5,467.5C 142.442,466.137 137.776,463.971 133.5,461C 126.681,453.927 127.348,447.593 135.5,442C 141.091,441.085 146.091,442.419 150.5,446C 154.5,446.667 158.5,446.667 162.5,446C 169.194,442.103 170.194,437.103 165.5,431C 153.681,427.847 143.514,422.013 135,413.5C 127.45,396.651 131.617,383.651 147.5,374.5C 148.315,369.526 150.649,365.526 154.5,362.5 Z"/></g>
<g><path style="opacity:1" fill="#5d5961" d="M 333.5,372.5 C 337.514,372.334 341.514,372.501 345.5,373C 351.256,375.254 354.59,379.42 355.5,385.5C 352.865,397.167 345.532,401.834 333.5,399.5C 333.5,390.5 333.5,381.5 333.5,372.5 Z"/></g>
<g><path style="opacity:1" fill="#4ac688" d="M 56.5,408.5 C 67.6219,407.459 73.1219,412.459 73,423.5C 69.1352,431.682 62.9686,434.182 54.5,431C 46.1425,422.656 46.8092,415.156 56.5,408.5 Z"/></g>
<g><path style="opacity:1" fill="#4ac688" d="M 253.5,408.5 C 265.378,406.887 270.878,411.887 270,423.5C 268.442,429.624 264.442,432.624 258,432.5C 248.599,430.724 244.933,425.057 247,415.5C 248.694,412.642 250.861,410.309 253.5,408.5 Z"/></g>
<g><path style="opacity:1" fill="#40b276" d="M 333.5,430.5 C 333.951,445.572 333.451,460.572 332,475.5C 327.581,484.418 320.414,488.418 310.5,487.5C 310.167,469.821 310.5,452.154 311.5,434.5C 318.484,431.254 325.817,429.921 333.5,430.5 Z"/></g>
<g><path style="opacity:1" fill="#4ac688" d="M 9.5,453.5 C 17.7876,454.072 25.7876,455.905 33.5,459C 54.7611,470.012 66.0944,487.512 67.5,511.5C 52.8333,511.5 38.1667,511.5 23.5,511.5C 17.1873,508.686 12.6873,504.019 10,497.5C 9.50009,482.837 9.33342,468.17 9.5,453.5 Z"/></g>
<g><path style="opacity:0.949" fill="#ce6d56" d="M 309.5,497.5 C 319.5,497.5 329.5,497.5 339.5,497.5C 327.647,502.215 315.314,505.549 302.5,507.5C 305.35,504.445 307.683,501.111 309.5,497.5 Z"/></g>
</svg>
