<svg width="16" height="16" viewBox="0 0 16 16" fill="none" xmlns="http://www.w3.org/2000/svg">
<path d="M7.25625 11.9437H8.79375V7.2375H7.25625V11.9437ZM7.96875 6.13125C8.23125 6.13125 8.44688 6.04688 8.61563 5.87813C8.78438 5.70938 8.86875 5.5 8.86875 5.25C8.86875 4.975 8.78125 4.75313 8.60625 4.58438C8.43125 4.41563 8.21875 4.33125 7.96875 4.33125C7.70625 4.33125 7.49062 4.41563 7.32187 4.58438C7.15312 4.75313 7.06875 4.96875 7.06875 5.23125C7.06875 5.49375 7.15625 5.70938 7.33125 5.87813C7.50625 6.04688 7.71875 6.13125 7.96875 6.13125V6.13125ZM7.96875 15.9562C6.86875 15.9562 5.83438 15.75 4.86563 15.3375C3.89688 14.925 3.05 14.3562 2.325 13.6312C1.6 12.9062 1.03125 12.0625 0.61875 11.1C0.20625 10.1375 0 9.1 0 7.9875C0 6.875 0.20625 5.83438 0.61875 4.86563C1.03125 3.89688 1.6 3.05313 2.325 2.33438C3.05 1.61563 3.89375 1.04687 4.85625 0.628125C5.81875 0.209375 6.85625 0 7.96875 0C9.08125 0 10.1219 0.209375 11.0906 0.628125C12.0594 1.04687 12.9031 1.61563 13.6219 2.33438C14.3406 3.05313 14.9094 3.89688 15.3281 4.86563C15.7469 5.83438 15.9562 6.875 15.9562 7.9875C15.9562 9.1 15.7469 10.1375 15.3281 11.1C14.9094 12.0625 14.3406 12.9031 13.6219 13.6219C12.9031 14.3406 12.0594 14.9094 11.0906 15.3281C10.1219 15.7469 9.08125 15.9562 7.96875 15.9562ZM7.9875 14.1937C9.7 14.1937 11.1594 13.5906 12.3656 12.3844C13.5719 11.1781 14.175 9.70625 14.175 7.96875C14.175 6.25625 13.5719 4.79687 12.3656 3.59062C11.1594 2.38437 9.69375 1.78125 7.96875 1.78125C6.24375 1.78125 4.77812 2.38437 3.57187 3.59062C2.36562 4.79687 1.7625 6.2625 1.7625 7.9875C1.7625 9.7125 2.36562 11.1781 3.57187 12.3844C4.77812 13.5906 6.25 14.1937 7.9875 14.1937Z" fill="white"/>
</svg>
